<?xml version="1.0" encoding="UTF-8" standalone="no"?><svg xmlns="http://www.w3.org/2000/svg" xmlns:xlink="http://www.w3.org/1999/xlink" contentStyleType="text/css" height="406px" preserveAspectRatio="none" style="width:686px;height:406px;background:#FFFFFF;" version="1.1" viewBox="0 0 686 406" width="686px" zoomAndPan="magnify"><defs/><g><!--MD5=[48fd9ba0f431717e30ffacaf4852bc92]
class GameStatus--><g id="elem_GameStatus"><rect codeLine="2" fill="#F1F1F1" height="112.3945" id="GameStatus" rx="2.5" ry="2.5" style="stroke:#181818;stroke-width:0.5;" width="111" x="29" y="287"/><ellipse cx="44" cy="303" fill="#EB937F" rx="11" ry="11" style="stroke:#181818;stroke-width:1.0;"/><path d="M39.6406,308.5 L39.6406,297.2969 L47.6719,297.2969 L47.6719,299.1875 L42.0938,299.1875 L42.0938,301.8906 L47.1719,301.8906 L47.1719,303.7813 L42.0938,303.7813 L42.0938,306.6094 L48.0156,306.6094 L48.0156,308.5 L39.6406,308.5 Z " fill="#000000"/><text fill="#000000" font-family="sans-serif" font-size="14" lengthAdjust="spacing" textLength="79" x="58" y="308.0825">GameStatus</text><line style="stroke:#181818;stroke-width:0.5;" x1="30" x2="139" y1="319" y2="319"/><text fill="#000000" font-family="sans-serif" font-size="14" lengthAdjust="spacing" textLength="43" x="35" y="336.1318">Lobby,</text><text fill="#000000" font-family="sans-serif" font-size="14" lengthAdjust="spacing" textLength="58" x="35" y="352.2305">Ongoing,</text><text fill="#000000" font-family="sans-serif" font-size="14" lengthAdjust="spacing" textLength="49" x="35" y="368.3291">Winner,</text><text fill="#000000" font-family="sans-serif" font-size="14" lengthAdjust="spacing" textLength="48" x="35" y="384.4277">Looser,</text><line style="stroke:#181818;stroke-width:0.5;" x1="30" x2="139" y1="391.3945" y2="391.3945"/></g><!--MD5=[b6dcce5e5ef3c84b0b048d11301373dd]
class Game--><g id="elem_Game"><rect codeLine="9" fill="#F1F1F1" height="64.0986" id="Game" rx="2.5" ry="2.5" style="stroke:#181818;stroke-width:0.5;" width="94" x="549.5" y="311"/><ellipse cx="574.85" cy="327" fill="#EB937F" rx="11" ry="11" style="stroke:#181818;stroke-width:1.0;"/><path d="M570.4906,332.5 L570.4906,321.2969 L578.5219,321.2969 L578.5219,323.1875 L572.9438,323.1875 L572.9438,325.8906 L578.0219,325.8906 L578.0219,327.7813 L572.9438,327.7813 L572.9438,330.6094 L578.8656,330.6094 L578.8656,332.5 L570.4906,332.5 Z " fill="#000000"/><text fill="#000000" font-family="sans-serif" font-size="14" lengthAdjust="spacing" textLength="39" x="591.15" y="332.0825">Game</text><line style="stroke:#181818;stroke-width:0.5;" x1="550.5" x2="642.5" y1="343" y2="343"/><text fill="#000000" font-family="sans-serif" font-size="14" lengthAdjust="spacing" textLength="82" x="555.5" y="360.1318">ViewGewinnt</text><line style="stroke:#181818;stroke-width:0.5;" x1="550.5" x2="642.5" y1="367.0986" y2="367.0986"/></g><!--MD5=[bfe30ee84a4578f71c1f5cf0b20e3079]
class PayloadType--><g id="elem_PayloadType"><rect codeLine="13" fill="#F1F1F1" height="112.3945" id="PayloadType" rx="2.5" ry="2.5" style="stroke:#181818;stroke-width:0.5;" width="115" x="362" y="287"/><ellipse cx="377" cy="303" fill="#EB937F" rx="11" ry="11" style="stroke:#181818;stroke-width:1.0;"/><path d="M372.6406,308.5 L372.6406,297.2969 L380.6719,297.2969 L380.6719,299.1875 L375.0938,299.1875 L375.0938,301.8906 L380.1719,301.8906 L380.1719,303.7813 L375.0938,303.7813 L375.0938,306.6094 L381.0156,306.6094 L381.0156,308.5 L372.6406,308.5 Z " fill="#000000"/><text fill="#000000" font-family="sans-serif" font-size="14" lengthAdjust="spacing" textLength="83" x="391" y="308.0825">PayloadType</text><line style="stroke:#181818;stroke-width:0.5;" x1="363" x2="476" y1="319" y2="319"/><text fill="#000000" font-family="sans-serif" font-size="14" lengthAdjust="spacing" textLength="39" x="368" y="336.1318">Login,</text><text fill="#000000" font-family="sans-serif" font-size="14" lengthAdjust="spacing" textLength="43" x="368" y="352.2305">Game,</text><text fill="#000000" font-family="sans-serif" font-size="14" lengthAdjust="spacing" textLength="30" x="368" y="368.3291">Quit,</text><text fill="#000000" font-family="sans-serif" font-size="14" lengthAdjust="spacing" textLength="36" x="368" y="384.4277">Error,</text><line style="stroke:#181818;stroke-width:0.5;" x1="363" x2="476" y1="391.3945" y2="391.3945"/></g><!--MD5=[b8cfd8c4119a3b0a7a46bfc5fc780f85]
class Error--><g id="elem_Error"><rect codeLine="20" fill="#F1F1F1" height="96.2959" id="Error" rx="2.5" ry="2.5" style="stroke:#181818;stroke-width:0.5;" width="115" x="208" y="295"/><ellipse cx="245.95" cy="311" fill="#EB937F" rx="11" ry="11" style="stroke:#181818;stroke-width:1.0;"/><path d="M241.5906,316.5 L241.5906,305.2969 L249.6219,305.2969 L249.6219,307.1875 L244.0438,307.1875 L244.0438,309.8906 L249.1219,309.8906 L249.1219,311.7813 L244.0438,311.7813 L244.0438,314.6094 L249.9656,314.6094 L249.9656,316.5 L241.5906,316.5 Z " fill="#000000"/><text fill="#000000" font-family="sans-serif" font-size="14" lengthAdjust="spacing" textLength="32" x="265.05" y="316.0825">Error</text><line style="stroke:#181818;stroke-width:0.5;" x1="209" x2="322" y1="327" y2="327"/><text fill="#000000" font-family="sans-serif" font-size="14" lengthAdjust="spacing" textLength="74" x="214" y="344.1318">Disconnect,</text><text fill="#000000" font-family="sans-serif" font-size="14" lengthAdjust="spacing" textLength="56" x="214" y="360.2305">Timeout,</text><text fill="#000000" font-family="sans-serif" font-size="14" lengthAdjust="spacing" textLength="103" x="214" y="376.3291">InvalidMessage,</text><line style="stroke:#181818;stroke-width:0.5;" x1="209" x2="322" y1="383.2959" y2="383.2959"/></g><!--MD5=[b3cbf94a74bed0c7148a9ebc43f4b8d9]
class BasePayload--><g id="elem_BasePayload"><rect codeLine="26" fill="#F1F1F1" height="80.1973" id="BasePayload" rx="2.5" ry="2.5" style="stroke:#181818;stroke-width:0.5;" width="211" x="239" y="7"/><ellipse cx="298.75" cy="23" fill="#ADD1B2" rx="11" ry="11" style="stroke:#181818;stroke-width:1.0;"/><path d="M296.4063,22.8438 Q296.4063,24.7188 296.9844,25.7344 Q297.5625,26.7344 298.7188,26.7344 Q300.0625,26.7344 300.7188,24.7188 L302.9844,25.1406 Q301.875,28.6719 298.7031,28.6719 Q296.3594,28.6719 295.1406,27.1875 Q293.9219,25.7031 293.9219,22.8438 Q293.9219,17.125 298.625,17.125 Q300.1719,17.125 301.2031,17.9375 Q302.25,18.75 302.75,20.3594 L300.4844,20.9063 Q300.25,20.0313 299.7656,19.5469 Q299.2813,19.0469 298.6563,19.0469 Q296.4063,19.0469 296.4063,22.8438 Z " fill="#000000"/><text fill="#000000" font-family="sans-serif" font-size="14" lengthAdjust="spacing" textLength="83" x="319.25" y="28.0825">BasePayload</text><line style="stroke:#181818;stroke-width:0.5;" x1="240" x2="449" y1="39" y2="39"/><ellipse cx="250" cy="52.5493" fill="none" rx="3" ry="3" style="stroke:#038048;stroke-width:1.0;"/><text fill="#000000" font-family="sans-serif" font-size="14" lengthAdjust="spacing" textLength="185" x="259" y="56.1318">message-type: PayloadType;</text><ellipse cx="250" cy="68.6479" fill="none" rx="3" ry="3" style="stroke:#038048;stroke-width:1.0;"/><text fill="#000000" font-family="sans-serif" font-size="14" lengthAdjust="spacing" textLength="102" x="259" y="72.2305">sender-id: Guid;</text><line style="stroke:#181818;stroke-width:0.5;" x1="240" x2="449" y1="79.1973" y2="79.1973"/></g><!--MD5=[d0cb2911e71576ea11aa3d6ad62a2398]
class GamePayload--><g id="elem_GamePayload"><rect codeLine="35" fill="#F1F1F1" height="80.1973" id="GamePayload" rx="2.5" ry="2.5" style="stroke:#181818;stroke-width:0.5;" width="155" x="7" y="147"/><ellipse cx="36.85" cy="163" fill="#ADD1B2" rx="11" ry="11" style="stroke:#181818;stroke-width:1.0;"/><path d="M34.5063,162.8438 Q34.5063,164.7188 35.0844,165.7344 Q35.6625,166.7344 36.8188,166.7344 Q38.1625,166.7344 38.8188,164.7188 L41.0844,165.1406 Q39.975,168.6719 36.8031,168.6719 Q34.4594,168.6719 33.2406,167.1875 Q32.0219,165.7031 32.0219,162.8438 Q32.0219,157.125 36.725,157.125 Q38.2719,157.125 39.3031,157.9375 Q40.35,158.75 40.85,160.3594 L38.5844,160.9063 Q38.35,160.0313 37.8656,159.5469 Q37.3813,159.0469 36.7563,159.0469 Q34.5063,159.0469 34.5063,162.8438 Z " fill="#000000"/><text fill="#000000" font-family="sans-serif" font-size="14" lengthAdjust="spacing" textLength="90" x="54.15" y="168.0825">GamePayload</text><line style="stroke:#181818;stroke-width:0.5;" x1="8" x2="161" y1="179" y2="179"/><ellipse cx="18" cy="192.5493" fill="none" rx="3" ry="3" style="stroke:#038048;stroke-width:1.0;"/><text fill="#000000" font-family="sans-serif" font-size="14" lengthAdjust="spacing" textLength="129" x="27" y="196.1318">status: GameStatus;</text><ellipse cx="18" cy="208.6479" fill="none" rx="3" ry="3" style="stroke:#038048;stroke-width:1.0;"/><text fill="#000000" font-family="sans-serif" font-size="14" lengthAdjust="spacing" textLength="69" x="27" y="212.2305">field: int[][];</text><line style="stroke:#181818;stroke-width:0.5;" x1="8" x2="161" y1="219.1973" y2="219.1973"/></g><!--MD5=[70ae826aef2a7e37bf4174ae387914e8]
class ErrorPayload--><g id="elem_ErrorPayload"><rect codeLine="43" fill="#F1F1F1" height="80.1973" id="ErrorPayload" rx="2.5" ry="2.5" style="stroke:#181818;stroke-width:0.5;" width="137" x="197" y="147"/><ellipse cx="221.9" cy="163" fill="#ADD1B2" rx="11" ry="11" style="stroke:#181818;stroke-width:1.0;"/><path d="M219.5563,162.8438 Q219.5563,164.7188 220.1344,165.7344 Q220.7125,166.7344 221.8688,166.7344 Q223.2125,166.7344 223.8688,164.7188 L226.1344,165.1406 Q225.025,168.6719 221.8531,168.6719 Q219.5094,168.6719 218.2906,167.1875 Q217.0719,165.7031 217.0719,162.8438 Q217.0719,157.125 221.775,157.125 Q223.3219,157.125 224.3531,157.9375 Q225.4,158.75 225.9,160.3594 L223.6344,160.9063 Q223.4,160.0313 222.9156,159.5469 Q222.4313,159.0469 221.8063,159.0469 Q219.5563,159.0469 219.5563,162.8438 Z " fill="#000000"/><text fill="#000000" font-family="sans-serif" font-size="14" lengthAdjust="spacing" textLength="83" x="238.1" y="168.0825">ErrorPayload</text><line style="stroke:#181818;stroke-width:0.5;" x1="198" x2="333" y1="179" y2="179"/><ellipse cx="208" cy="192.5493" fill="none" rx="3" ry="3" style="stroke:#038048;stroke-width:1.0;"/><text fill="#000000" font-family="sans-serif" font-size="14" lengthAdjust="spacing" textLength="111" x="217" y="196.1318">error-code: Error;</text><ellipse cx="208" cy="208.6479" fill="none" rx="3" ry="3" style="stroke:#038048;stroke-width:1.0;"/><text fill="#000000" font-family="sans-serif" font-size="14" lengthAdjust="spacing" textLength="105" x="217" y="212.2305">message: string;</text><line style="stroke:#181818;stroke-width:0.5;" x1="198" x2="333" y1="219.1973" y2="219.1973"/></g><!--MD5=[d9f5e40288a9c3bdb064162c121ebe18]
class LoginPayload--><g id="elem_LoginPayload"><rect codeLine="52" fill="#F1F1F1" height="80.1973" id="LoginPayload" rx="2.5" ry="2.5" style="stroke:#181818;stroke-width:0.5;" width="166" x="513.5" y="147"/><ellipse cx="550.1" cy="163" fill="#ADD1B2" rx="11" ry="11" style="stroke:#181818;stroke-width:1.0;"/><path d="M547.7563,162.8438 Q547.7563,164.7188 548.3344,165.7344 Q548.9125,166.7344 550.0688,166.7344 Q551.4125,166.7344 552.0688,164.7188 L554.3344,165.1406 Q553.225,168.6719 550.0531,168.6719 Q547.7094,168.6719 546.4906,167.1875 Q545.2719,165.7031 545.2719,162.8438 Q545.2719,157.125 549.975,157.125 Q551.5219,157.125 552.5531,157.9375 Q553.6,158.75 554.1,160.3594 L551.8344,160.9063 Q551.6,160.0313 551.1156,159.5469 Q550.6313,159.0469 550.0063,159.0469 Q547.7563,159.0469 547.7563,162.8438 Z " fill="#000000"/><text fill="#000000" font-family="sans-serif" font-size="14" lengthAdjust="spacing" textLength="86" x="568.9" y="168.0825">LoginPayload</text><line style="stroke:#181818;stroke-width:0.5;" x1="514.5" x2="678.5" y1="179" y2="179"/><ellipse cx="524.5" cy="192.5493" fill="none" rx="3" ry="3" style="stroke:#038048;stroke-width:1.0;"/><text fill="#000000" font-family="sans-serif" font-size="14" lengthAdjust="spacing" textLength="87" x="533.5" y="196.1318">game: Game;</text><ellipse cx="524.5" cy="208.6479" fill="none" rx="3" ry="3" style="stroke:#038048;stroke-width:1.0;"/><text fill="#000000" font-family="sans-serif" font-size="14" lengthAdjust="spacing" textLength="140" x="533.5" y="212.2305">timestamp: DateTime;</text><line style="stroke:#181818;stroke-width:0.5;" x1="514.5" x2="678.5" y1="219.1973" y2="219.1973"/></g><!--MD5=[bb335bcdd5d1c3ba7295f221fe986efc]
class QuitPayload--><g id="elem_QuitPayload"><rect codeLine="59" fill="#F1F1F1" height="48" id="QuitPayload" rx="2.5" ry="2.5" style="stroke:#181818;stroke-width:0.5;" width="109" x="369" y="163"/><ellipse cx="384" cy="179" fill="#ADD1B2" rx="11" ry="11" style="stroke:#181818;stroke-width:1.0;"/><path d="M381.6563,178.8438 Q381.6563,180.7188 382.2344,181.7344 Q382.8125,182.7344 383.9688,182.7344 Q385.3125,182.7344 385.9688,180.7188 L388.2344,181.1406 Q387.125,184.6719 383.9531,184.6719 Q381.6094,184.6719 380.3906,183.1875 Q379.1719,181.7031 379.1719,178.8438 Q379.1719,173.125 383.875,173.125 Q385.4219,173.125 386.4531,173.9375 Q387.5,174.75 388,176.3594 L385.7344,176.9063 Q385.5,176.0313 385.0156,175.5469 Q384.5313,175.0469 383.9063,175.0469 Q381.6563,175.0469 381.6563,178.8438 Z " fill="#000000"/><text fill="#000000" font-family="sans-serif" font-size="14" lengthAdjust="spacing" textLength="77" x="398" y="184.0825">QuitPayload</text><line style="stroke:#181818;stroke-width:0.5;" x1="370" x2="477" y1="195" y2="195"/><line style="stroke:#181818;stroke-width:0.5;" x1="370" x2="477" y1="203" y2="203"/></g><!--MD5=[c8d66782260982e72eebceeaaf69a2ba]
reverse link BasePayload to GamePayload--><g id="link_BasePayload_GamePayload"><path codeLine="32" d="M252.83,96.65 C221.77,113.14 187.51,131.33 158.04,146.96 " fill="none" id="BasePayload-backto-GamePayload" style="stroke:#181818;stroke-width:1.0;"/><polygon fill="none" points="249.74,90.37,270.69,87.18,256.31,102.74,249.74,90.37" style="stroke:#181818;stroke-width:1.0;"/></g><!--MD5=[f7955ef01e8711028a699c102d5ad2ac]
link GamePayload to GameStatus--><g id="link_GamePayload_GameStatus"><path codeLine="33" d="M84.5,227.26 C84.5,243.79 84.5,263.42 84.5,281.71 " fill="none" id="GamePayload-to-GameStatus" style="stroke:#181818;stroke-width:1.0;stroke-dasharray:7.0,7.0;"/><polygon fill="#181818" points="84.5,286.83,88.5,277.83,84.5,281.83,80.5,277.83,84.5,286.83" style="stroke:#181818;stroke-width:1.0;"/></g><!--MD5=[b248d454ed161bfa27370fdb166977a0]
link GamePayload to PayloadType--><g id="link_GamePayload_PayloadType"><path codeLine="34" d="M162.18,220.13 C168.03,222.48 173.86,224.79 179.5,227 C250.61,254.84 272.85,251.57 340.5,287 C346.16,289.97 351.9,293.27 357.55,296.75 " fill="none" id="GamePayload-to-PayloadType" style="stroke:#181818;stroke-width:1.0;stroke-dasharray:7.0,7.0;"/><polygon fill="#181818" points="361.86,299.45,356.3357,291.2964,357.616,296.8064,352.1059,298.0868,361.86,299.45" style="stroke:#181818;stroke-width:1.0;"/></g><!--MD5=[b04c8ceb111fd1db27b4f7814bce7b95]
reverse link BasePayload to ErrorPayload--><g id="link_BasePayload_ErrorPayload"><path codeLine="40" d="M312.13,104.55 C304.02,118.71 295.49,133.61 287.98,146.73 " fill="none" id="BasePayload-backto-ErrorPayload" style="stroke:#181818;stroke-width:1.0;"/><polygon fill="none" points="306.06,101.06,322.07,87.18,318.21,108.01,306.06,101.06" style="stroke:#181818;stroke-width:1.0;"/></g><!--MD5=[6b425b7304f9f48ab78065bf97788200]
link ErrorPayload to Error--><g id="link_ErrorPayload_Error"><path codeLine="41" d="M265.5,227.26 C265.5,246.24 265.5,269.28 265.5,289.72 " fill="none" id="ErrorPayload-to-Error" style="stroke:#181818;stroke-width:1.0;stroke-dasharray:7.0,7.0;"/><polygon fill="#181818" points="265.5,294.85,269.5,285.85,265.5,289.85,261.5,285.85,265.5,294.85" style="stroke:#181818;stroke-width:1.0;"/></g><!--MD5=[71d2bf8e8ffe7748e1ec11aec6859b2a]
link ErrorPayload to PayloadType--><g id="link_ErrorPayload_PayloadType"><path codeLine="42" d="M304.76,227.26 C321.72,244.22 341.92,264.42 360.62,283.12 " fill="none" id="ErrorPayload-to-PayloadType" style="stroke:#181818;stroke-width:1.0;stroke-dasharray:7.0,7.0;"/><polygon fill="#181818" points="364.33,286.83,360.7945,277.6376,360.7945,283.2945,355.1376,283.2945,364.33,286.83" style="stroke:#181818;stroke-width:1.0;"/></g><!--MD5=[8c3f97786e75d0eed4ac995172273b4a]
reverse link BasePayload to LoginPayload--><g id="link_BasePayload_LoginPayload"><path codeLine="49" d="M433.77,96.88 C463.76,113.31 496.79,131.4 525.22,146.96 " fill="none" id="BasePayload-backto-LoginPayload" style="stroke:#181818;stroke-width:1.0;"/><polygon fill="none" points="430.22,102.92,416.04,87.18,436.94,90.64,430.22,102.92" style="stroke:#181818;stroke-width:1.0;"/></g><!--MD5=[8911ee2aca28e8d89ec3efc1cf06d6e8]
link LoginPayload to Game--><g id="link_LoginPayload_Game"><path codeLine="50" d="M596.5,227.26 C596.5,251.29 596.5,281.82 596.5,305.35 " fill="none" id="LoginPayload-to-Game" style="stroke:#181818;stroke-width:1.0;stroke-dasharray:7.0,7.0;"/><polygon fill="#181818" points="596.5,310.57,600.5,301.57,596.5,305.57,592.5,301.57,596.5,310.57" style="stroke:#181818;stroke-width:1.0;"/></g><!--MD5=[12b4268b0e2b5bf3fc1aa5d52608d355]
link LoginPayload to PayloadType--><g id="link_LoginPayload_PayloadType"><path codeLine="51" d="M551.38,227.26 C530.08,245.79 504.32,268.2 481.25,288.28 " fill="none" id="LoginPayload-to-PayloadType" style="stroke:#181818;stroke-width:1.0;stroke-dasharray:7.0,7.0;"/><polygon fill="#181818" points="477.27,291.74,486.6835,288.844,481.04,288.4556,481.4284,282.8121,477.27,291.74" style="stroke:#181818;stroke-width:1.0;"/></g><!--MD5=[554a5f5a16ec8b88056c2f8e180c0f88]
reverse link BasePayload to QuitPayload--><g id="link_BasePayload_QuitPayload"><path codeLine="57" d="M377.03,104.82 C388.64,125.11 401.09,146.85 410.17,162.72 " fill="none" id="BasePayload-backto-QuitPayload" style="stroke:#181818;stroke-width:1.0;"/><polygon fill="none" points="370.79,108.01,366.93,87.18,382.94,101.06,370.79,108.01" style="stroke:#181818;stroke-width:1.0;"/></g><!--MD5=[6e2bde1a96207c1cd19a4826c645a6d6]
link QuitPayload to PayloadType--><g id="link_QuitPayload_PayloadType"><path codeLine="58" d="M422.9,211.06 C422.42,229.7 421.71,256.82 421.07,281.55 " fill="none" id="QuitPayload-to-PayloadType" style="stroke:#181818;stroke-width:1.0;stroke-dasharray:7.0,7.0;"/><polygon fill="#181818" points="420.93,286.79,425.16,277.8958,421.0585,281.7917,417.1627,277.6902,420.93,286.79" style="stroke:#181818;stroke-width:1.0;"/></g><!--MD5=[1c582b19627b50acfb4084c4470ec341]
@startuml

enum GameStatus {
    Lobby,
    Ongoing,
    Winner,
    Looser,
}

enum Game {
    ViewGewinnt
}

enum PayloadType{
    Login,
    Game,
    Quit,
    Error,
}

enum Error {
    Disconnect,
    Timeout,
    InvalidMessage,
}

class BasePayload{
    + message-type: PayloadType;
    + sender-id: Guid;
}


GamePayload -u-|> BasePayload
GamePayload ..> GameStatus
GamePayload ..> PayloadType
class GamePayload{
    + status: GameStatus;
    + field: int[][];
}

ErrorPayload -u-|> BasePayload
ErrorPayload ..> Error
ErrorPayload ..> PayloadType
class ErrorPayload{
    + error-code: Error;
    + message: string;
}


LoginPayload -u-|> BasePayload
LoginPayload ..> Game
LoginPayload ..> PayloadType
class LoginPayload{
    + game: Game;
    + timestamp: DateTime;
}

QuitPayload -u-|> BasePayload
QuitPayload ..> PayloadType
class QuitPayload{
}
@enduml

PlantUML version 1.2022.7(Mon Aug 22 19:01:30 CEST 2022)
(GPL source distribution)
Java Runtime: OpenJDK Runtime Environment
JVM: OpenJDK 64-Bit Server VM
Default Encoding: UTF-8
Language: en
Country: US
--></g></svg>