<?xml version="1.0" encoding="UTF-8" standalone="no"?><svg xmlns="http://www.w3.org/2000/svg" xmlns:xlink="http://www.w3.org/1999/xlink" contentStyleType="text/css" height="1023px" preserveAspectRatio="none" style="width:874px;height:1023px;background:#FFFFFF;" version="1.1" viewBox="0 0 874 1023" width="874px" zoomAndPan="magnify"><defs/><g><rect fill="#FFFFFF" height="293.8423" style="stroke:#181818;stroke-width:1.0;" width="10" x="139" y="112.0474"/><rect fill="#FFFFFF" height="14" style="stroke:#181818;stroke-width:1.0;" width="10" x="139" y="532.7358"/><rect fill="#FFFFFF" height="125.8975" style="stroke:#181818;stroke-width:1.0;" width="10" x="291" y="727.582"/><rect fill="#FFFFFF" height="14" style="stroke:#181818;stroke-width:1.0;" width="10" x="291" y="911.377"/><rect fill="#FFFFFF" height="28.9487" style="stroke:#181818;stroke-width:1.0;" width="10" x="569" y="182.0947"/><rect fill="#FFFFFF" height="151.8975" style="stroke:#181818;stroke-width:1.0;" width="10" x="569" y="239.9922"/><rect fill="#FFFFFF" height="25" style="stroke:#181818;stroke-width:1.0;" width="10" x="574" y="276.9409"/><rect fill="#FFFFFF" height="25" style="stroke:#181818;stroke-width:1.0;" width="10" x="574" y="345.8896"/><rect fill="#FFFFFF" height="263.7949" style="stroke:#181818;stroke-width:1.0;" width="10" x="569" y="434.8384"/><rect fill="#FFFFFF" height="25" style="stroke:#181818;stroke-width:1.0;" width="10" x="574" y="471.7871"/><rect fill="#FFFFFF" height="25" style="stroke:#181818;stroke-width:1.0;" width="10" x="574" y="583.6846"/><rect fill="#FFFFFF" height="25" style="stroke:#181818;stroke-width:1.0;" width="10" x="574" y="652.6333"/><rect fill="#FFFFFF" height="82.9487" style="stroke:#181818;stroke-width:1.0;" width="10" x="569" y="756.5308"/><rect fill="#FFFFFF" height="25" style="stroke:#181818;stroke-width:1.0;" width="10" x="574" y="793.4795"/><rect fill="#FFFFFF" height="51.9487" style="stroke:#181818;stroke-width:1.0;" width="10" x="569" y="882.4282"/><line style="stroke:#181818;stroke-width:0.5;stroke-dasharray:5.0,5.0;" x1="34" x2="34" y1="81.0986" y2="943.377"/><line style="stroke:#181818;stroke-width:0.5;stroke-dasharray:5.0,5.0;" x1="144" x2="144" y1="81.0986" y2="943.377"/><line style="stroke:#181818;stroke-width:0.5;stroke-dasharray:5.0,5.0;" x1="296" x2="296" y1="81.0986" y2="943.377"/><line style="stroke:#181818;stroke-width:0.5;stroke-dasharray:5.0,5.0;" x1="574" x2="574" y1="150.5967" y2="943.377"/><line style="stroke:#181818;stroke-width:0.5;stroke-dasharray:5.0,5.0;" x1="843.5" x2="843.5" y1="81.0986" y2="943.377"/><text fill="#000000" font-family="sans-serif" font-size="14" lengthAdjust="spacing" textLength="53" x="5" y="78.1318">SpielerA</text><ellipse cx="34.5" cy="13.5" fill="#E2E2F0" rx="8" ry="8" style="stroke:#181818;stroke-width:0.5;"/><path d="M34.5,21.5 L34.5,48.5 M21.5,29.5 L47.5,29.5 M34.5,48.5 L21.5,63.5 M34.5,48.5 L47.5,63.5 " fill="none" style="stroke:#181818;stroke-width:0.5;"/><text fill="#000000" font-family="sans-serif" font-size="14" lengthAdjust="spacing" textLength="53" x="5" y="955.5088">SpielerA</text><ellipse cx="34.5" cy="966.9756" fill="#E2E2F0" rx="8" ry="8" style="stroke:#181818;stroke-width:0.5;"/><path d="M34.5,974.9756 L34.5,1001.9756 M21.5,982.9756 L47.5,982.9756 M34.5,1001.9756 L21.5,1016.9756 M34.5,1001.9756 L47.5,1016.9756 " fill="none" style="stroke:#181818;stroke-width:0.5;"/><rect fill="#E2E2F0" height="30.0986" rx="2.5" ry="2.5" style="stroke:#181818;stroke-width:0.5;" width="140" x="74" y="50"/><text fill="#000000" font-family="sans-serif" font-size="14" lengthAdjust="spacing" textLength="126" x="81" y="70.1318">SpielerA: LoginView</text><rect fill="#E2E2F0" height="30.0986" rx="2.5" ry="2.5" style="stroke:#181818;stroke-width:0.5;" width="140" x="74" y="942.377"/><text fill="#000000" font-family="sans-serif" font-size="14" lengthAdjust="spacing" textLength="126" x="81" y="962.5088">SpielerA: LoginView</text><rect fill="#E2E2F0" height="30.0986" rx="2.5" ry="2.5" style="stroke:#181818;stroke-width:0.5;" width="144" x="224" y="50"/><text fill="#000000" font-family="sans-serif" font-size="14" lengthAdjust="spacing" textLength="130" x="231" y="70.1318">SpielerA: GameView</text><rect fill="#E2E2F0" height="30.0986" rx="2.5" ry="2.5" style="stroke:#181818;stroke-width:0.5;" width="144" x="224" y="942.377"/><text fill="#000000" font-family="sans-serif" font-size="14" lengthAdjust="spacing" textLength="130" x="231" y="962.5088">SpielerA: GameView</text><rect fill="#E2E2F0" height="30.0986" rx="2.5" ry="2.5" style="stroke:#181818;stroke-width:0.5;" width="152" x="498" y="942.377"/><text fill="#000000" font-family="sans-serif" font-size="14" lengthAdjust="spacing" textLength="138" x="505" y="962.5088">SpielerA: MQTTClient</text><text fill="#000000" font-family="sans-serif" font-size="14" lengthAdjust="spacing" textLength="53" x="814.5" y="78.1318">SpielerB</text><ellipse cx="844" cy="13.5" fill="#E2E2F0" rx="8" ry="8" style="stroke:#181818;stroke-width:0.5;"/><path d="M844,21.5 L844,48.5 M831,29.5 L857,29.5 M844,48.5 L831,63.5 M844,48.5 L857,63.5 " fill="none" style="stroke:#181818;stroke-width:0.5;"/><text fill="#000000" font-family="sans-serif" font-size="14" lengthAdjust="spacing" textLength="53" x="814.5" y="955.5088">SpielerB</text><ellipse cx="844" cy="966.9756" fill="#E2E2F0" rx="8" ry="8" style="stroke:#181818;stroke-width:0.5;"/><path d="M844,974.9756 L844,1001.9756 M831,982.9756 L857,982.9756 M844,1001.9756 L831,1016.9756 M844,1001.9756 L857,1016.9756 " fill="none" style="stroke:#181818;stroke-width:0.5;"/><rect fill="#FFFFFF" height="293.8423" style="stroke:#181818;stroke-width:1.0;" width="10" x="139" y="112.0474"/><rect fill="#FFFFFF" height="14" style="stroke:#181818;stroke-width:1.0;" width="10" x="139" y="532.7358"/><rect fill="#FFFFFF" height="125.8975" style="stroke:#181818;stroke-width:1.0;" width="10" x="291" y="727.582"/><rect fill="#FFFFFF" height="14" style="stroke:#181818;stroke-width:1.0;" width="10" x="291" y="911.377"/><rect fill="#FFFFFF" height="28.9487" style="stroke:#181818;stroke-width:1.0;" width="10" x="569" y="182.0947"/><rect fill="#FFFFFF" height="151.8975" style="stroke:#181818;stroke-width:1.0;" width="10" x="569" y="239.9922"/><rect fill="#FFFFFF" height="25" style="stroke:#181818;stroke-width:1.0;" width="10" x="574" y="276.9409"/><rect fill="#FFFFFF" height="25" style="stroke:#181818;stroke-width:1.0;" width="10" x="574" y="345.8896"/><rect fill="#FFFFFF" height="263.7949" style="stroke:#181818;stroke-width:1.0;" width="10" x="569" y="434.8384"/><rect fill="#FFFFFF" height="25" style="stroke:#181818;stroke-width:1.0;" width="10" x="574" y="471.7871"/><rect fill="#FFFFFF" height="25" style="stroke:#181818;stroke-width:1.0;" width="10" x="574" y="583.6846"/><rect fill="#FFFFFF" height="25" style="stroke:#181818;stroke-width:1.0;" width="10" x="574" y="652.6333"/><rect fill="#FFFFFF" height="82.9487" style="stroke:#181818;stroke-width:1.0;" width="10" x="569" y="756.5308"/><rect fill="#FFFFFF" height="25" style="stroke:#181818;stroke-width:1.0;" width="10" x="574" y="793.4795"/><rect fill="#FFFFFF" height="51.9487" style="stroke:#181818;stroke-width:1.0;" width="10" x="569" y="882.4282"/><polygon fill="#181818" points="127,108.0474,137,112.0474,127,116.0474,131,112.0474" style="stroke:#181818;stroke-width:1.0;"/><line style="stroke:#181818;stroke-width:1.0;" x1="34.5" x2="133" y1="112.0474" y2="112.0474"/><text fill="#000000" font-family="sans-serif" font-size="13" lengthAdjust="spacing" textLength="61" x="41.5" y="107.2925">login_click</text><polygon fill="#181818" points="486,136.9961,496,140.9961,486,144.9961,490,140.9961" style="stroke:#181818;stroke-width:1.0;"/><line style="stroke:#181818;stroke-width:1.0;" x1="149" x2="492" y1="140.9961" y2="140.9961"/><text fill="#000000" font-family="sans-serif" font-size="13" lengthAdjust="spacing" textLength="105" x="156" y="136.2412">new MQTTClient()</text><rect fill="#E2E2F0" height="30.0986" rx="2.5" ry="2.5" style="stroke:#181818;stroke-width:0.5;" width="152" x="498" y="120.0474"/><text fill="#000000" font-family="sans-serif" font-size="14" lengthAdjust="spacing" textLength="138" x="505" y="140.1792">SpielerA: MQTTClient</text><polygon fill="#181818" points="557,178.0947,567,182.0947,557,186.0947,561,182.0947" style="stroke:#181818;stroke-width:1.0;"/><line style="stroke:#181818;stroke-width:1.0;" x1="149" x2="563" y1="182.0947" y2="182.0947"/><text fill="#000000" font-family="sans-serif" font-size="13" lengthAdjust="spacing" textLength="260" x="156" y="177.3398">Connect(address, port, username, password)</text><polygon fill="#181818" points="160,207.0435,150,211.0435,160,215.0435,156,211.0435" style="stroke:#181818;stroke-width:1.0;"/><line style="stroke:#181818;stroke-width:1.0;stroke-dasharray:2.0,2.0;" x1="154" x2="573" y1="211.0435" y2="211.0435"/><text fill="#000000" font-family="sans-serif" font-size="13" lengthAdjust="spacing" textLength="60" x="166" y="206.2886">connected</text><polygon fill="#181818" points="557,235.9922,567,239.9922,557,243.9922,561,239.9922" style="stroke:#181818;stroke-width:1.0;"/><line style="stroke:#181818;stroke-width:1.0;" x1="149" x2="563" y1="239.9922" y2="239.9922"/><text fill="#000000" font-family="sans-serif" font-size="13" lengthAdjust="spacing" textLength="207" x="156" y="235.2373">PublishLoginPayload(LoginPayload)</text><line style="stroke:#181818;stroke-width:1.0;" x1="579" x2="626" y1="263.9409" y2="263.9409"/><line style="stroke:#181818;stroke-width:1.0;" x1="626" x2="626" y1="263.9409" y2="276.9409"/><line style="stroke:#181818;stroke-width:1.0;" x1="585" x2="626" y1="276.9409" y2="276.9409"/><polygon fill="#181818" points="595,272.9409,585,276.9409,595,280.9409,591,276.9409" style="stroke:#181818;stroke-width:1.0;"/><text fill="#000000" font-family="sans-serif" font-size="13" lengthAdjust="spacing" textLength="111" x="591" y="259.186">Subscribe("/lobby")</text><line style="stroke:#181818;stroke-width:1.0;stroke-dasharray:2.0,2.0;" x1="584" x2="626" y1="300.9409" y2="300.9409"/><line style="stroke:#181818;stroke-width:1.0;stroke-dasharray:2.0,2.0;" x1="626" x2="626" y1="300.9409" y2="313.9409"/><line style="stroke:#181818;stroke-width:1.0;stroke-dasharray:2.0,2.0;" x1="579" x2="626" y1="313.9409" y2="313.9409"/><polygon fill="#181818" points="589,309.9409,579,313.9409,589,317.9409,585,313.9409" style="stroke:#181818;stroke-width:1.0;"/><line style="stroke:#181818;stroke-width:1.0;" x1="579" x2="626" y1="332.8896" y2="332.8896"/><line style="stroke:#181818;stroke-width:1.0;" x1="626" x2="626" y1="332.8896" y2="345.8896"/><line style="stroke:#181818;stroke-width:1.0;" x1="585" x2="626" y1="345.8896" y2="345.8896"/><polygon fill="#181818" points="595,341.8896,585,345.8896,595,349.8896,591,345.8896" style="stroke:#181818;stroke-width:1.0;"/><text fill="#000000" font-family="sans-serif" font-size="13" lengthAdjust="spacing" textLength="157" x="591" y="328.1348">Publish(LoginPayload.json)</text><line style="stroke:#181818;stroke-width:1.0;stroke-dasharray:2.0,2.0;" x1="584" x2="626" y1="369.8896" y2="369.8896"/><line style="stroke:#181818;stroke-width:1.0;stroke-dasharray:2.0,2.0;" x1="626" x2="626" y1="369.8896" y2="382.8896"/><line style="stroke:#181818;stroke-width:1.0;stroke-dasharray:2.0,2.0;" x1="579" x2="626" y1="382.8896" y2="382.8896"/><polygon fill="#181818" points="589,378.8896,579,382.8896,589,386.8896,585,382.8896" style="stroke:#181818;stroke-width:1.0;"/><polygon fill="#181818" points="160,387.8896,150,391.8896,160,395.8896,156,391.8896" style="stroke:#181818;stroke-width:1.0;"/><line style="stroke:#181818;stroke-width:1.0;stroke-dasharray:2.0,2.0;" x1="154" x2="573" y1="391.8896" y2="391.8896"/><polygon fill="#181818" points="45.5,401.8896,35.5,405.8896,45.5,409.8896,41.5,405.8896" style="stroke:#181818;stroke-width:1.0;"/><line style="stroke:#181818;stroke-width:1.0;stroke-dasharray:2.0,2.0;" x1="39.5" x2="143" y1="405.8896" y2="405.8896"/><polygon fill="#181818" points="590,430.8384,580,434.8384,590,438.8384,586,434.8384" style="stroke:#181818;stroke-width:1.0;"/><line style="stroke:#181818;stroke-width:1.0;" x1="584" x2="843" y1="434.8384" y2="434.8384"/><text fill="#000000" font-family="sans-serif" font-size="13" lengthAdjust="spacing" textLength="187" x="596" y="430.0835">OnLoginMessage(LoginPayload)</text><line style="stroke:#181818;stroke-width:1.0;" x1="579" x2="626" y1="458.7871" y2="458.7871"/><line style="stroke:#181818;stroke-width:1.0;" x1="626" x2="626" y1="458.7871" y2="471.7871"/><line style="stroke:#181818;stroke-width:1.0;" x1="585" x2="626" y1="471.7871" y2="471.7871"/><polygon fill="#181818" points="595,467.7871,585,471.7871,595,475.7871,591,471.7871" style="stroke:#181818;stroke-width:1.0;"/><text fill="#000000" font-family="sans-serif" font-size="13" lengthAdjust="spacing" textLength="246" x="591" y="454.0322">SetOpponentID(LoginPayload.opponent-id)</text><line style="stroke:#181818;stroke-width:1.0;stroke-dasharray:2.0,2.0;" x1="584" x2="626" y1="495.7871" y2="495.7871"/><line style="stroke:#181818;stroke-width:1.0;stroke-dasharray:2.0,2.0;" x1="626" x2="626" y1="495.7871" y2="508.7871"/><line style="stroke:#181818;stroke-width:1.0;stroke-dasharray:2.0,2.0;" x1="579" x2="626" y1="508.7871" y2="508.7871"/><polygon fill="#181818" points="589,504.7871,579,508.7871,589,512.7871,585,508.7871" style="stroke:#181818;stroke-width:1.0;"/><polygon fill="#181818" points="160,528.7358,150,532.7358,160,536.7358,156,532.7358" style="stroke:#181818;stroke-width:1.0;"/><line style="stroke:#181818;stroke-width:1.0;" x1="154" x2="568" y1="532.7358" y2="532.7358"/><text fill="#000000" font-family="sans-serif" font-size="13" lengthAdjust="spacing" textLength="130" x="166" y="527.981">ChangeToGameView()</text><polygon fill="#181818" points="557,542.7358,567,546.7358,557,550.7358,561,546.7358" style="stroke:#181818;stroke-width:1.0;"/><line style="stroke:#181818;stroke-width:1.0;stroke-dasharray:2.0,2.0;" x1="144" x2="563" y1="546.7358" y2="546.7358"/><line style="stroke:#181818;stroke-width:1.0;" x1="579" x2="626" y1="570.6846" y2="570.6846"/><line style="stroke:#181818;stroke-width:1.0;" x1="626" x2="626" y1="570.6846" y2="583.6846"/><line style="stroke:#181818;stroke-width:1.0;" x1="585" x2="626" y1="583.6846" y2="583.6846"/><polygon fill="#181818" points="595,579.6846,585,583.6846,595,587.6846,591,583.6846" style="stroke:#181818;stroke-width:1.0;"/><text fill="#000000" font-family="sans-serif" font-size="13" lengthAdjust="spacing" textLength="125" x="591" y="565.9297">Unsubscribe("/lobby")</text><line style="stroke:#181818;stroke-width:1.0;stroke-dasharray:2.0,2.0;" x1="584" x2="626" y1="607.6846" y2="607.6846"/><line style="stroke:#181818;stroke-width:1.0;stroke-dasharray:2.0,2.0;" x1="626" x2="626" y1="607.6846" y2="620.6846"/><line style="stroke:#181818;stroke-width:1.0;stroke-dasharray:2.0,2.0;" x1="579" x2="626" y1="620.6846" y2="620.6846"/><polygon fill="#181818" points="589,616.6846,579,620.6846,589,624.6846,585,620.6846" style="stroke:#181818;stroke-width:1.0;"/><line style="stroke:#181818;stroke-width:1.0;" x1="579" x2="626" y1="639.6333" y2="639.6333"/><line style="stroke:#181818;stroke-width:1.0;" x1="626" x2="626" y1="639.6333" y2="652.6333"/><line style="stroke:#181818;stroke-width:1.0;" x1="585" x2="626" y1="652.6333" y2="652.6333"/><polygon fill="#181818" points="595,648.6333,585,652.6333,595,656.6333,591,652.6333" style="stroke:#181818;stroke-width:1.0;"/><text fill="#000000" font-family="sans-serif" font-size="13" lengthAdjust="spacing" textLength="112" x="591" y="634.8784">Subscribe("/game")</text><line style="stroke:#181818;stroke-width:1.0;stroke-dasharray:2.0,2.0;" x1="584" x2="626" y1="676.6333" y2="676.6333"/><line style="stroke:#181818;stroke-width:1.0;stroke-dasharray:2.0,2.0;" x1="626" x2="626" y1="676.6333" y2="689.6333"/><line style="stroke:#181818;stroke-width:1.0;stroke-dasharray:2.0,2.0;" x1="579" x2="626" y1="689.6333" y2="689.6333"/><polygon fill="#181818" points="589,685.6333,579,689.6333,589,693.6333,585,689.6333" style="stroke:#181818;stroke-width:1.0;"/><polygon fill="#181818" points="832,694.6333,842,698.6333,832,702.6333,836,698.6333" style="stroke:#181818;stroke-width:1.0;"/><line style="stroke:#181818;stroke-width:1.0;stroke-dasharray:2.0,2.0;" x1="574" x2="838" y1="698.6333" y2="698.6333"/><polygon fill="#181818" points="279,723.582,289,727.582,279,731.582,283,727.582" style="stroke:#181818;stroke-width:1.0;"/><line style="stroke:#181818;stroke-width:1.0;" x1="34.5" x2="285" y1="727.582" y2="727.582"/><text fill="#000000" font-family="sans-serif" font-size="13" lengthAdjust="spacing" textLength="80" x="41.5" y="722.8271">commit_turn()</text><polygon fill="#181818" points="557,752.5308,567,756.5308,557,760.5308,561,756.5308" style="stroke:#181818;stroke-width:1.0;"/><line style="stroke:#181818;stroke-width:1.0;" x1="301" x2="563" y1="756.5308" y2="756.5308"/><text fill="#000000" font-family="sans-serif" font-size="13" lengthAdjust="spacing" textLength="249" x="308" y="751.7759">PublishGameMessage(GamePayload.json)</text><line style="stroke:#181818;stroke-width:1.0;" x1="579" x2="626" y1="780.4795" y2="780.4795"/><line style="stroke:#181818;stroke-width:1.0;" x1="626" x2="626" y1="780.4795" y2="793.4795"/><line style="stroke:#181818;stroke-width:1.0;" x1="585" x2="626" y1="793.4795" y2="793.4795"/><polygon fill="#181818" points="595,789.4795,585,793.4795,595,797.4795,591,793.4795" style="stroke:#181818;stroke-width:1.0;"/><text fill="#000000" font-family="sans-serif" font-size="13" lengthAdjust="spacing" textLength="215" x="591" y="775.7246">Publish(GamePayload.json, "/game")</text><line style="stroke:#181818;stroke-width:1.0;stroke-dasharray:2.0,2.0;" x1="584" x2="626" y1="817.4795" y2="817.4795"/><line style="stroke:#181818;stroke-width:1.0;stroke-dasharray:2.0,2.0;" x1="626" x2="626" y1="817.4795" y2="830.4795"/><line style="stroke:#181818;stroke-width:1.0;stroke-dasharray:2.0,2.0;" x1="579" x2="626" y1="830.4795" y2="830.4795"/><polygon fill="#181818" points="589,826.4795,579,830.4795,589,834.4795,585,830.4795" style="stroke:#181818;stroke-width:1.0;"/><polygon fill="#181818" points="312,835.4795,302,839.4795,312,843.4795,308,839.4795" style="stroke:#181818;stroke-width:1.0;"/><line style="stroke:#181818;stroke-width:1.0;stroke-dasharray:2.0,2.0;" x1="306" x2="573" y1="839.4795" y2="839.4795"/><polygon fill="#181818" points="45.5,849.4795,35.5,853.4795,45.5,857.4795,41.5,853.4795" style="stroke:#181818;stroke-width:1.0;"/><line style="stroke:#181818;stroke-width:1.0;stroke-dasharray:2.0,2.0;" x1="39.5" x2="295" y1="853.4795" y2="853.4795"/><polygon fill="#181818" points="590,878.4282,580,882.4282,590,886.4282,586,882.4282" style="stroke:#181818;stroke-width:1.0;"/><line style="stroke:#181818;stroke-width:1.0;" x1="584" x2="843" y1="882.4282" y2="882.4282"/><text fill="#000000" font-family="sans-serif" font-size="13" lengthAdjust="spacing" textLength="243" x="596" y="877.6733">OnGamePayloadReceived(GamePayload)</text><polygon fill="#181818" points="312,907.377,302,911.377,312,915.377,308,911.377" style="stroke:#181818;stroke-width:1.0;"/><line style="stroke:#181818;stroke-width:1.0;" x1="306" x2="568" y1="911.377" y2="911.377"/><text fill="#000000" font-family="sans-serif" font-size="13" lengthAdjust="spacing" textLength="194" x="318" y="906.6221">UpdateGameView(GamePayload)</text><polygon fill="#181818" points="832,921.377,842,925.377,832,929.377,836,925.377" style="stroke:#181818;stroke-width:1.0;"/><line style="stroke:#181818;stroke-width:1.0;stroke-dasharray:2.0,2.0;" x1="296" x2="838" y1="925.377" y2="925.377"/><!--MD5=[9b268adb67f1c5ec8436e01b0b45a6f7]
@startuml
autoactivate on
actor SpielerA


participant LoginView as "SpielerA: LoginView"
participant GameView as "SpielerA: GameView"
participant MQTTClient as "SpielerA: MQTTClient"


SpielerA -> LoginView : login_click
LoginView -> MQTTClient** : new MQTTClient()
LoginView -> MQTTClient : Connect(address, port, username, password)
MQTTClient - -> LoginView : connected
LoginView -> MQTTClient : PublishLoginPayload(LoginPayload)
MQTTClient -> MQTTClient : Subscribe("/lobby")
MQTTClient - - -> MQTTClient 
MQTTClient -> MQTTClient : Publish(LoginPayload.json)
MQTTClient - -> MQTTClient
MQTTClient - -> LoginView
LoginView - -> SpielerA 

actor SpielerB

SpielerB -> MQTTClient : OnLoginMessage(LoginPayload)
MQTTClient -> MQTTClient : SetOpponentID(LoginPayload.opponent-id)
MQTTClient - -> MQTTClient
MQTTClient -> LoginView : ChangeToGameView()
MQTTClient <- - LoginView
MQTTClient -> MQTTClient : Unsubscribe("/lobby")
MQTTClient - -> MQTTClient
MQTTClient -> MQTTClient : Subscribe("/game")
MQTTClient - -> MQTTClient
SpielerB <- - MQTTClient

SpielerA -> GameView: commit_turn()
GameView -> MQTTClient: PublishGameMessage(GamePayload.json)
MQTTClient -> MQTTClient: Publish(GamePayload.json, "/game")
MQTTClient - -> MQTTClient
MQTTClient - -> GameView
SpielerA <- - GameView

SpielerB -> MQTTClient: OnGamePayloadReceived(GamePayload)
MQTTClient -> GameView: UpdateGameView(GamePayload)
SpielerB <- - GameView
@enduml

PlantUML version 1.2022.7(Mon Aug 22 19:01:30 CEST 2022)
(GPL source distribution)
Java Runtime: OpenJDK Runtime Environment
JVM: OpenJDK 64-Bit Server VM
Default Encoding: UTF-8
Language: en
Country: US
--></g></svg>